<svg width="16" height="16" viewBox="0 0 16 16" fill="none" xmlns="http://www.w3.org/2000/svg">
<path d="M12.2133 15.178L8 12.2287L3.78667 15.178C3.71176 15.2304 3.62391 15.2613 3.53267 15.2673C3.44144 15.2732 3.35031 15.2541 3.26921 15.2119C3.1881 15.1697 3.12012 15.1061 3.07265 15.0279C3.02519 14.9498 3.00006 14.8601 3 14.7687V1.72867C3 1.46345 3.10536 1.2091 3.29289 1.02156C3.48043 0.834025 3.73478 0.728668 4 0.728668H12C12.2652 0.728668 12.5196 0.834025 12.7071 1.02156C12.8946 1.2091 13 1.46345 13 1.72867V14.7687C12.9999 14.8601 12.9748 14.9498 12.9273 15.0279C12.8799 15.1061 12.8119 15.1697 12.7308 15.2119C12.6497 15.2541 12.5586 15.2732 12.4673 15.2673C12.3761 15.2613 12.2882 15.2304 12.2133 15.178V15.178Z" stroke="#536471" stroke-linecap="round" stroke-linejoin="round"/>
</svg>
