<svg width="16" height="16" viewBox="0 0 16 16" fill="none" xmlns="http://www.w3.org/2000/svg">
<g clip-path="url(#clip0_2206_4932)">
<path d="M14.3869 7.42C14.3697 7.36772 14.3401 7.32039 14.3006 7.28207C14.2612 7.24375 14.213 7.21559 14.1602 7.2C14.1077 7.18383 14.0518 7.18148 13.9981 7.19315C13.9444 7.20483 13.8946 7.23015 13.8535 7.26666C13.4471 7.60104 12.9989 7.88116 12.5202 8.09999C12.4967 8.11283 12.4703 8.11956 12.4435 8.11956C12.4167 8.11956 12.3904 8.11283 12.3669 8.09999C12.3428 8.0863 12.3224 8.06705 12.3073 8.04385C12.2923 8.02066 12.283 7.99419 12.2802 7.96666C12.1402 6.04086 11.3673 4.2154 10.082 2.77451C8.79662 1.33361 7.07091 0.358146 5.17354 -5.27363e-06C5.11138 -0.0106926 5.04746 -0.00316023 4.9895 0.0216826C4.93153 0.0465254 4.88199 0.0876164 4.84687 0.139995C4.81299 0.192689 4.79498 0.254015 4.79498 0.316661C4.79498 0.379308 4.81299 0.440633 4.84687 0.493328C5.38902 1.4628 5.67148 2.5559 5.66687 3.66666C5.6655 4.42412 5.52307 5.17469 5.24687 5.87999C5.23259 5.90645 5.21142 5.92856 5.1856 5.94396C5.15978 5.95937 5.13027 5.9675 5.1002 5.9675C5.07014 5.9675 5.04063 5.95937 5.01481 5.94396C4.98899 5.92856 4.96782 5.90645 4.95354 5.87999C4.65983 5.40541 4.43534 4.89134 4.28687 4.35333C4.27127 4.30057 4.24311 4.25238 4.20479 4.2129C4.16647 4.17341 4.11914 4.14382 4.06687 4.12666C4.01324 4.11057 3.95643 4.10824 3.90167 4.11989C3.84691 4.13154 3.79596 4.1568 3.75354 4.19333C2.99396 4.81676 2.38271 5.60148 1.96412 6.49053C1.54554 7.37958 1.33014 8.35067 1.33354 9.33333C1.33354 9.45333 1.33354 9.57333 1.33354 9.69333C1.38638 10.6326 1.63743 11.5501 2.07017 12.3854C2.50291 13.2208 3.10755 13.955 3.84434 14.54C4.58113 15.125 5.43338 15.5474 6.34508 15.7795C7.25678 16.0116 8.20727 16.048 9.13407 15.8866C10.0609 15.7251 10.943 15.3692 11.7225 14.8425C12.502 14.3157 13.1611 13.63 13.6566 12.8303C14.1521 12.0306 14.4728 11.135 14.5975 10.2026C14.7222 9.2701 14.6482 8.3218 14.3802 7.42H14.3869ZM8.0002 14.1667C7.64375 14.1668 7.29089 14.0955 6.96249 13.9569C6.63408 13.8183 6.33678 13.6153 6.08818 13.3599C5.83957 13.1044 5.6447 12.8017 5.51508 12.4697C5.38547 12.1376 5.32373 11.783 5.33354 11.4267C5.34496 10.4419 5.64466 9.48203 6.19559 8.66571C6.74652 7.84938 7.52455 7.21235 8.43353 6.83333C8.46718 6.82003 8.50424 6.81804 8.53912 6.82766C8.574 6.83728 8.6048 6.85799 8.62687 6.88666C8.64906 6.91654 8.66104 6.95278 8.66104 6.98999C8.66104 7.02721 8.64906 7.06345 8.62687 7.09333C8.34327 7.49088 8.16568 7.95415 8.11086 8.4394C8.05603 8.92464 8.12579 9.41586 8.31354 9.86666C8.32587 9.88977 8.34293 9.91002 8.3636 9.9261C8.38428 9.94218 8.4081 9.95373 8.43353 9.95999C8.45942 9.96358 8.48576 9.96189 8.51096 9.95502C8.53617 9.94814 8.55973 9.93623 8.5802 9.92C8.80692 9.73606 8.97588 9.49073 9.06687 9.21333C9.07363 9.18978 9.0855 9.16802 9.10163 9.14958C9.11776 9.13114 9.13776 9.11649 9.1602 9.10666C9.18169 9.09499 9.20575 9.08888 9.2302 9.08888C9.25465 9.08888 9.27872 9.09499 9.3002 9.10666C9.74091 9.32356 10.1066 9.66742 10.3502 10.094C10.5937 10.5205 10.704 11.0102 10.6669 11.5C10.6741 11.8522 10.6101 12.2022 10.4787 12.529C10.3472 12.8558 10.1511 13.1527 9.902 13.4018C9.65291 13.6509 9.35604 13.847 9.02922 13.9785C8.7024 14.1099 8.35239 14.1739 8.0002 14.1667V14.1667Z" fill="#536471"/>
</g>
<defs>
<clipPath id="clip0_2206_4932">
<rect width="16" height="16" fill="white"/>
</clipPath>
</defs>
</svg>
