<svg width="16" height="16" viewBox="0 0 16 16" fill="none" xmlns="http://www.w3.org/2000/svg">
<path d="M13.3332 4.00001C13.3332 4.00001 11.8048 2.80401 9.99984 2.66667L9.83717 2.99201C11.4692 3.39134 12.2178 3.96367 12.9998 4.66667C11.6515 3.97834 10.3202 3.33334 7.99984 3.33334C5.6795 3.33334 4.34817 3.97834 2.99984 4.66667C3.78184 3.96367 4.6725 3.32834 6.1625 2.99201L5.99984 2.66667C4.10617 2.84567 2.6665 4.00001 2.6665 4.00001C2.6665 4.00001 0.959504 6.475 0.666504 11.3333C2.38717 13.3177 4.99984 13.3333 4.99984 13.3333L5.54617 12.605C4.61884 12.2827 3.5715 11.707 2.6665 10.6667C3.74584 11.4833 5.37484 12.3333 7.99984 12.3333C10.6248 12.3333 12.2538 11.4833 13.3332 10.6667C12.4282 11.707 11.3808 12.2827 10.4535 12.605L10.9998 13.3333C10.9998 13.3333 13.6125 13.3177 15.3332 11.3333C15.0402 6.475 13.3332 4.00001 13.3332 4.00001ZM5.83317 10C5.18884 10 4.6665 9.403 4.6665 8.66667C4.6665 7.93034 5.18884 7.33334 5.83317 7.33334C6.4775 7.33334 6.99984 7.93034 6.99984 8.66667C6.99984 9.403 6.4775 10 5.83317 10ZM10.1665 10C9.52217 10 8.99984 9.403 8.99984 8.66667C8.99984 7.93034 9.52217 7.33334 10.1665 7.33334C10.8108 7.33334 11.3332 7.93034 11.3332 8.66667C11.3332 9.403 10.8108 10 10.1665 10Z" fill="#536471"/>
</svg>
