<svg width="17" height="16" viewBox="0 0 17 16" fill="none" xmlns="http://www.w3.org/2000/svg">
<g clip-path="url(#clip0_8160_13518)">
<path d="M14.5629 6.17999C14.5362 6.12516 14.4945 6.07908 14.4425 6.04719C14.3905 6.01531 14.3305 5.99893 14.2696 5.99999H9.34956L10.5962 0.406652C10.6191 0.326951 10.6121 0.241624 10.5765 0.166728C10.5409 0.0918313 10.4792 0.0325308 10.4029 -1.42869e-05C10.3324 -0.0309651 10.2535 -0.0365888 10.1793 -0.0159313C10.1052 0.00472616 10.0405 0.0503925 9.99623 0.113319L3.32956 9.44665C3.29704 9.49862 3.27979 9.55868 3.27979 9.61999C3.27979 9.68129 3.29704 9.74136 3.32956 9.79332C3.35152 9.8497 3.3887 9.89888 3.43696 9.93537C3.48522 9.97186 3.54267 9.99423 3.6029 9.99999H8.5229L7.27623 15.5933C7.25332 15.673 7.26032 15.7583 7.29593 15.8332C7.33154 15.9081 7.39329 15.9674 7.46956 16C7.54037 16.0285 7.61861 16.0329 7.69214 16.0124C7.76567 15.9919 7.83038 15.9477 7.87623 15.8867L14.5429 6.55332C14.584 6.50062 14.608 6.43656 14.6116 6.3698C14.6152 6.30303 14.5982 6.23678 14.5629 6.17999Z" fill="#536471"/>
</g>
<defs>
<clipPath id="clip0_8160_13518">
<rect width="16" height="16" fill="white" transform="translate(0.936035)"/>
</clipPath>
</defs>
</svg>
