<svg width="16" height="16" viewBox="0 0 16 16" fill="none" xmlns="http://www.w3.org/2000/svg">
<g clip-path="url(#clip0_118_47)">
<path d="M8 15.5C12.1421 15.5 15.5 12.1421 15.5 8C15.5 3.85786 12.1421 0.5 8 0.5C3.85786 0.5 0.5 3.85786 0.5 8C0.5 12.1421 3.85786 15.5 8 15.5Z" stroke="#536471" stroke-linecap="round" stroke-linejoin="round"/>
<path d="M6.58683 15.3667C5.54016 13.9 4.8335 11.1467 4.8335 8.03334C4.8335 4.92001 5.54016 2.10001 6.58683 0.666672" stroke="#536471" stroke-linecap="round" stroke-linejoin="round"/>
<path d="M9.41357 15.3667C10.4602 13.9 11.1669 11.1467 11.1669 8.03334C11.1669 4.92001 10.4602 2.10001 9.41357 0.666672" stroke="#536471" stroke-linecap="round" stroke-linejoin="round"/>
<path d="M0.5 8H15.5" stroke="#536471" stroke-linecap="round" stroke-linejoin="round"/>
<path d="M1.3667 11.5H14.6334" stroke="#536471" stroke-linecap="round" stroke-linejoin="round"/>
<path d="M1.3667 4.5H14.6334" stroke="#536471" stroke-linecap="round" stroke-linejoin="round"/>
</g>
<defs>
<clipPath id="clip0_118_47">
<rect width="16" height="16" fill="white"/>
</clipPath>
</defs>
</svg>
