<svg width="16" height="16" viewBox="0 0 16 16" fill="none" xmlns="http://www.w3.org/2000/svg">
<path d="M8 10.5C9.38071 10.5 10.5 9.38071 10.5 8C10.5 6.61929 9.38071 5.5 8 5.5C6.61929 5.5 5.5 6.61929 5.5 8C5.5 9.38071 6.61929 10.5 8 10.5Z" stroke="#536471" stroke-linecap="round" stroke-linejoin="round"/>
<path d="M11.4128 13.534L8.35278 10.474" stroke="#536471" stroke-linecap="round" stroke-linejoin="round"/>
<path d="M10.4741 8.35333L13.5341 11.4127" stroke="#536471" stroke-linecap="round" stroke-linejoin="round"/>
<path d="M2.46606 11.4127L5.52606 8.35266" stroke="#536471" stroke-linecap="round" stroke-linejoin="round"/>
<path d="M7.6474 10.4747L4.5874 13.534" stroke="#536471" stroke-linecap="round" stroke-linejoin="round"/>
<path d="M4.5874 2.46667L7.6474 5.52601" stroke="#536471" stroke-linecap="round" stroke-linejoin="round"/>
<path d="M5.52606 7.64734L2.46606 4.58734" stroke="#536471" stroke-linecap="round" stroke-linejoin="round"/>
<path d="M13.5341 4.58734L10.4741 7.64734" stroke="#536471" stroke-linecap="round" stroke-linejoin="round"/>
<path d="M8.35278 5.52601L11.4128 2.46667" stroke="#536471" stroke-linecap="round" stroke-linejoin="round"/>
<path d="M8 14.5C11.5899 14.5 14.5 11.5899 14.5 8C14.5 4.41015 11.5899 1.5 8 1.5C4.41015 1.5 1.5 4.41015 1.5 8C1.5 11.5899 4.41015 14.5 8 14.5Z" stroke="#536471" stroke-linecap="round" stroke-linejoin="round"/>
</svg>
