<svg width="16" height="16" viewBox="0 0 16 16" fill="none" xmlns="http://www.w3.org/2000/svg">
<g clip-path="url(#clip0_4812_7854)">
<path d="M16.02 3.33999C15.4287 3.60249 14.795 3.77874 14.1287 3.85874C14.8087 3.45124 15.3312 2.80624 15.5762 2.03874C14.9412 2.41499 14.235 2.68874 13.4862 2.83624C12.8862 2.19624 12.0312 1.79749 11.085 1.79749C9.26745 1.79749 7.7937 3.26999 7.7937 5.08749C7.7937 5.34499 7.8237 5.59624 7.87995 5.83749C5.14495 5.69999 2.7212 4.38999 1.09745 2.39874C0.813701 2.88624 0.652451 3.45124 0.652451 4.05374C0.652451 5.19499 1.23245 6.20249 2.1162 6.79374C1.5762 6.77624 1.0687 6.62749 0.624951 6.38124C0.624951 6.39499 0.624951 6.40874 0.624951 6.42249C0.624951 8.01749 1.75995 9.34624 3.2637 9.64999C2.9887 9.72499 2.69745 9.76499 2.39745 9.76499C2.18495 9.76499 1.9787 9.74499 1.77745 9.70499C2.19745 11.0112 3.41245 11.965 4.8512 11.9912C3.7262 12.8737 2.30745 13.3987 0.764951 13.3987C0.498701 13.3987 0.237451 13.3837 -0.0187988 13.3525C1.4362 14.2875 3.1662 14.8312 5.02495 14.8312C11.0775 14.8312 14.3875 9.81749 14.3875 5.46999C14.3875 5.32749 14.3837 5.18374 14.3787 5.04374C15.0212 4.57999 15.5787 3.99999 16.02 3.33999Z" fill="#536471"/>
</g>
<defs>
<clipPath id="clip0_4812_7854">
<rect width="16" height="16" fill="white"/>
</clipPath>
</defs>
</svg>
